inDegrees=yes
name=ik_coleta2_trike_5hz_mov
DataType=double
version=3
OpenSimVersion=4.4-2022-07-23-0e9fedc
endheader
time	hip_flexion_r	knee_angle_r	hip_flexion_l	knee_angle_l	gearToGround_coord_0
30.00837397575378	92.48776352232505	-96.37714042929089	104.6494825812155	-78.50705579172615	-194.4561282993403
30.02038288116455	92.9396478903419	-97.02039872041863	104.3572039907336	-78.24454507540155	-195.8600238653707
30.02932000160217	93.37161113594154	-97.62281392853008	103.8290847837534	-77.62267113029064	-197.1845676939765
30.03432583808899	93.7913511301774	-98.19686689554759	103.3089966076364	-76.88015005756674	-198.4599533420004
30.03935980796814	94.19863136204701	-98.74339291881024	102.8458059751445	-76.44810840767519	-199.6825600310131
30.04434490203857	94.6068676501072	-99.28098047459206	102.3183192869112	-75.68832620574514	-200.8963887224411
30.04831409454346	95.02426702490827	-99.82051956684558	101.8811007387267	-75.31723555226654	-202.1231754414824
30.05335378646851	95.46238729622792	-100.3757730720122	101.3149803996603	-74.51293888470421	-203.3997583285634
30.05733585357666	95.92759905217304	-100.9533121025817	100.8593888229591	-74.11429470298002	-204.7412301728057
30.09632802009583	96.42315379180488	-101.5551479812681	100.3034394774999	-73.44981185840797	-206.1559237122005
30.11035418510437	96.93792296703867	-102.1659847292134	99.71473897779539	-72.74483004404267	-207.612162677519
30.1163330078125	97.45914388128804	-102.7699212622023	99.13549472949637	-72.09206452926006	-209.068507214486
30.12137794494629	97.95387924928008	-103.3298557582773	98.59333022396252	-71.48885919033768	-210.4400656363237
30.12634801864624	98.39216194544582	-103.8152674009824	98.12418242100424	-71.07535769718926	-211.6445949242582
30.13134098052979	98.77926632450558	-104.2358099993357	97.71841954354726	-70.61834574202008	-212.705938822609
30.13531994819641	99.09107496721182	-104.5690338568679	97.37460883865391	-70.26587121693944	-213.551117547958
30.14137601852417	99.34565485968794	-104.8374842922517	97.12505638396739	-69.95425514808016	-214.2424933716752
30.14631795883179	99.56620973251279	-105.0674302729741	96.85220963221268	-69.71955944761673	-214.8360157746546
30.15635800361633	99.77124853163637	-105.2790659316727	96.65195635077608	-69.49881979836704	-215.3855638776506
30.16532707214355	100.0031547116498	-105.5159601319029	96.420333096666	-69.24496231783149	-216.0079743497137
30.17032790184021	100.2722937840466	-105.7875740483507	96.16078815286656	-68.93251228720311	-216.7277278547494
30.17436575889587	100.6071924631049	-106.120657064091	95.81688674534759	-68.57601880435021	-217.61832806941
30.18032002449036	101.0230362288962	-106.5267622508545	95.38562598092901	-68.08104754627804	-218.7216624572673
30.18836092948914	101.5298755462139	-107.0106035838101	94.82858718414739	-67.60713598703538	-220.0585252831073
30.19334697723389	102.1512837354988	-107.5873437789615	94.09232497005222	-66.8444685455036	-221.6914035193091
30.20032978057861	102.8626584431492	-108.2255567392478	93.5235894540008	-66.28737499207907	-223.5500481997704
30.2053759098053	103.6864290735409	-108.935494201589	92.73832754429569	-65.38315527349617	-225.6917750348592
30.20933794975281	104.6422782635337	-109.720785952098	91.86930421923076	-64.61150205774524	-228.16272212065
30.21632719039917	105.7371100030954	-110.5695551957128	90.5599238501505	-63.21943031433516	-230.9873572701561
30.22336506843567	106.9874042053923	-111.4729341321248	89.67666349640047	-62.68183745969653	-234.2165364723147
30.22732090950012	108.3706163699381	-112.3899136588544	88.52880952532843	-61.68318331425397	-237.8042599873524
30.23232197761536	109.8368138690299	-113.265477524626	86.97079468816932	-60.18239146809161	-241.6507103851664
30.23632407188416	111.3211390916792	-114.0467451167399	86.07152880500068	-59.69548077324038	-245.6177666198964
30.24233889579773	112.753081988095	-114.6938070125326	84.92174739970106	-58.8940827192253	-249.54982238154
30.24632382392883	114.0975796203911	-115.1972543202388	83.9694942996412	-58.48819414955403	-253.3828742679526
30.2513279914856	115.319382235028	-115.5567682089288	83.07377851533509	-58.09492312697117	-257.0178093020681
30.25835680961609	116.4414298276387	-115.7922205323346	82.26388442863612	-57.81823393690161	-260.5382634385156
30.26432704925537	117.4572180974683	-115.9132518857636	81.39828594355691	-57.25747512583585	-263.9274444573722
30.27233910560608	118.3700874384495	-115.9309486740462	80.98026973647218	-57.53390830378572	-267.1926933908249
30.27831792831421	119.1852329187908	-115.8558047358937	80.50041300684788	-57.71748320246698	-270.3496566332607
30.28432607650757	119.9095889200618	-115.6961351033233	80.0564102372456	-57.87677042025626	-273.4183815654621
30.28941297531128	120.5493082864963	-115.4579919446859	79.63290177909496	-58.02484550018846	-276.4182453953551
30.29431700706482	121.1111991876554	-115.1445061162958	79.22830640206152	-58.2245017572897	-279.3819315252438
30.3043360710144	121.5951489277095	-114.7593935740439	78.84329325688111	-58.50255413058957	-282.320570454461
30.30834698677063	122.0905844431023	-114.4832301246577	78.81885712684868	-59.05805849505173	-284.5375230586486
30.31332397460938	122.5690924599462	-114.1642823570752	78.46378043618644	-59.51427517442599	-287.5579643293788
30.31832003593445	122.8241373823876	-113.6375274924336	78.36329788312052	-60.08161496881759	-290.1720719694636
30.32831311225891	123.0145357050148	-113.071939800467	78.30726944334928	-60.71744070119414	-292.7189488236908
30.33634090423584	123.1474912870325	-112.4518961999648	78.2911570730833	-61.43070537408985	-295.2815364293943
30.34334206581116	123.2236118769771	-111.7504799026457	78.3076719543629	-62.18967444032916	-297.9613838568463
30.34730887413025	123.234653327981	-110.9557267835603	78.62186736532597	-63.3239448755012	-300.7847090144276
30.35232710838318	123.1716134343568	-110.0703017366859	78.49721153058616	-64.01688982759349	-303.7219720833185
30.3573842048645	123.0325541296719	-109.120548512296	78.67844180052032	-65.06440734814544	-306.6824204029347
30.3643159866333	122.8269282569833	-108.1480188356605	79.06152357268543	-66.54014515044035	-309.550607086644
30.36832094192505	122.5742041400022	-107.1985135949204	79.13172650352487	-67.18380661819759	-312.2241940610018
30.37235021591187	122.2989264112499	-106.3138642819068	79.5863874982835	-68.52224723280347	-314.618290358909
30.3773410320282	122.0262912660798	-105.5288913257018	79.50340726195812	-69.02868251740942	-316.6784364058161
30.38130712509155	121.7750123903246	-104.8601511784246	79.68296355333379	-69.66443987655657	-318.3908964775653
30.38532590866089	121.5509603771011	-104.296928771	79.86966874495585	-70.25498549750907	-319.8050697530502
30.39234304428101	121.3569987528385	-103.830060552378	80.02904826739841	-70.7567322676471	-320.9609140127282
30.39830994606018	121.1889072995052	-103.4382934914281	80.14050003517885	-71.27925869689517	-321.918958304533
30.40736889839172	121.0407252089031	-103.1017004408196	80.30181493740602	-71.55782263751014	-322.7342786975206
30.4133129119873	120.9046821728104	-102.7991239358457	80.32483081009698	-71.86096822956506	-323.4615598281036
30.41733121871948	120.7758662655072	-102.5179984368596	80.47743646941292	-72.16062835045075	-324.1325428223706
30.42536902427673	120.6518841998513	-102.2518060153722	80.52665234708844	-72.4225792139566	-324.7638295658364
30.43136715888977	120.5318533090223	-101.9979607907691	80.60035002057904	-72.69623348464957	-325.3623734439901
30.43839979171753	120.4153296408798	-101.7548932988516	80.68935586074338	-72.94799547814698	-325.9322142435468
30.44435596466064	120.3015527656266	-101.5206580109197	80.76286994406031	-73.20468912804094	-326.4787208644482
30.4543468952179	120.1868986277259	-101.2874507161251	80.85096563916116	-73.44116562927513	-327.0202409959681
30.46232008934021	120.0674208883946	-101.0473198448101	80.93587461544899	-73.69372999160809	-327.5749740764041
30.473384141922	119.9402930816083	-100.7948581076872	81.02444234266736	-73.96096885711012	-328.1554924821286
30.48738694190979	119.8058248258512	-100.5310508985807	81.12093468623164	-74.23668858835435	-328.7592903337451
30.49336385726929	119.6676752291614	-100.2633064937723	81.21901246753508	-74.51720762854687	-329.3688245735665
30.49733901023865	119.5331603172203	-100.0056474683058	81.30899500416119	-74.80428068338769	-329.952601900542
30.5013279914856	119.4103576857845	-99.77285842795797	81.47433834765616	-75.05682225740784	-330.477859125185
30.50535011291504	119.3048584733683	-99.57464610225936	81.51768003840904	-75.23998418632077	-330.923440717023
30.51432299613953	119.2174804939798	-99.41167926294872	81.55064008214488	-75.40052261975276	-331.2888607043002
30.51932096481323	119.1462313361803	-99.27957511723285	81.60923865657823	-75.53889454138871	-331.5842135227698
30.52635192871094	119.0862693744116	-99.1689264568795	81.65786038477256	-75.65567966486505	-331.830821295676
30.53132605552673	119.0328391151182	-99.07072927880533	81.69465841354634	-75.75763503464829	-332.0496645143035
30.53532195091248	118.9802189717081	-98.97438004708211	81.7340359174645	-75.85861934039946	-332.2639620513187
30.54039287567139	118.9223076860655	-98.86874713289345	81.7783053335463	-75.96977544917701	-332.4985108563109
30.54438996315002	118.852271813137	-98.74155409190359	81.80290863980332	-76.09896071311269	-332.780879417973
30.54831719398499	118.7634089429652	-98.58101560762182	81.85622143196697	-76.27481930154785	-333.135879650625
30.55538392066956	118.6488631419051	-98.37546215884105	81.94761181572679	-76.47908776604872	-333.5894251220391
30.55934309959412	118.5018102986463	-98.11374104804553	82.04819306854522	-76.75205366078039	-334.1647987462607
30.5633111000061	118.3167951927437	-97.78772960556833	82.17178585767616	-77.09823154243361	-334.8784219789807
30.56731581687927	118.0888663454346	-97.39099825536081	82.34828338961783	-77.4974952271765	-335.7430959752764
30.5733859539032	117.814965288793	-96.92076831243749	82.58380776091049	-78.00044082789508	-336.7619724107338
30.5813159942627	117.4952698444309	-96.3803272212141	82.74924954242404	-78.55850466874602	-337.9262628453026
30.58733797073364	117.1355758966695	-95.78228307432869	83.12620889410132	-79.22884581579289	-339.2051966975297
30.59335684776306	116.7483708907177	-95.14933528824518	83.27550325138981	-79.83260741412754	-340.5503538686225
30.601322889328	116.3506683695515	-94.50996554254291	83.64843845585668	-80.49817898113677	-341.9006254839564
30.60736203193665	115.9536974011703	-93.88171326272338	83.83815705749608	-81.12361099767308	-343.2194461605829
30.61232399940491	115.5644856381488	-93.27475899558698	84.12143871644192	-81.72291325040081	-344.4881660213165
30.62932085990906	115.1817352283873	-92.68584776114038	84.39867178192694	-82.31753972331228	-345.7130499592818
30.63532900810242	114.803925220613	-92.11188453590962	84.65818893274881	-82.91392365392369	-346.9011999312954
30.64332103729248	114.4285339873542	-91.54829764026267	84.93458268447489	-83.47097659854113	-348.064633151047
30.65232396125793	114.0530293723118	-90.99086071788388	85.19773035678558	-84.08070125615754	-349.2112581043674
